custom-analysis
version=1
nRows=7
nColumns=98
inDegrees=no

This file contains tibia displacement and acting force.

Units are S.I. units (seconds, meters, Newtons, ...)
Angles are in degrees.

endheader
time	APT	SIT	knee_angle	aACL_R_force	pACL_R_force	aPCL_R_force	pPCL_R_force	aMCL_R_force	mMCL_R_force	pMCL_R_force	aLCL_R_force	mLCL_R_force	pLCL_R_force	aPCL_L_force	pPCL_L_force	aMCL_L_force	aLCL_L_force	aACL_R_length	pACL_R_length	aPCL_R_length	pPCL_R_length	aMCL_R_length	mMCL_R_length	pMCL_R_length	aLCL_R_length	mLCL_R_length	pLCL_R_length	aPCL_L_length	pPCL_L_length	aMCL_L_length	aLCL_L_length	aACL_R_strain	pACL_R_strain	aPCL_R_strain	pPCL_R_strain	aMCL_R_strain	mMCL_R_strain	pMCL_R_strain	aLCL_R_strain	mLCL_R_strain	pLCL_R_strain	aPCL_L_strain	pPCL_L_strain	aMCL_L_strain	aLCL_L_strain	femur_lat_meniscii_r.femur_lat_r.force.X	femur_lat_meniscii_r.femur_lat_r.force.Y	femur_lat_meniscii_r.femur_lat_r.force.Z	femur_lat_meniscii_r.femur_lat_r.torque.X	femur_lat_meniscii_r.femur_lat_r.torque.Y	femur_lat_meniscii_r.femur_lat_r.torque.Z	femur_lat_meniscii_r.meniscus_lat_r.force.X	femur_lat_meniscii_r.meniscus_lat_r.force.Y	femur_lat_meniscii_r.meniscus_lat_r.force.Z	femur_lat_meniscii_r.meniscus_lat_r.torque.X	femur_lat_meniscii_r.meniscus_lat_r.torque.Y	femur_lat_meniscii_r.meniscus_lat_r.torque.Z	femur_med_meniscii_r.femur_med_r.force.X	femur_med_meniscii_r.femur_med_r.force.Y	femur_med_meniscii_r.femur_med_r.force.Z	femur_med_meniscii_r.femur_med_r.torque.X	femur_med_meniscii_r.femur_med_r.torque.Y	femur_med_meniscii_r.femur_med_r.torque.Z	femur_med_meniscii_r.meniscus_med_r.force.X	femur_med_meniscii_r.meniscus_med_r.force.Y	femur_med_meniscii_r.meniscus_med_r.force.Z	femur_med_meniscii_r.meniscus_med_r.torque.X	femur_med_meniscii_r.meniscus_med_r.torque.Y	femur_med_meniscii_r.meniscus_med_r.torque.Z	femur_med_tibia_r.tibia_upper_r.force.X	femur_med_tibia_r.tibia_upper_r.force.Y	femur_med_tibia_r.tibia_upper_r.force.Z	femur_med_tibia_r.tibia_upper_r.torque.X	femur_med_tibia_r.tibia_upper_r.torque.Y	femur_med_tibia_r.tibia_upper_r.torque.Z	femur_med_tibia_r.femur_med_r.force.X	femur_med_tibia_r.femur_med_r.force.Y	femur_med_tibia_r.femur_med_r.force.Z	femur_med_tibia_r.femur_med_r.torque.X	femur_med_tibia_r.femur_med_r.torque.Y	femur_med_tibia_r.femur_med_r.torque.Z	femur_lat_tibia_r.tibia_upper_r.force.X	femur_lat_tibia_r.tibia_upper_r.force.Y	femur_lat_tibia_r.tibia_upper_r.force.Z	femur_lat_tibia_r.tibia_upper_r.torque.X	femur_lat_tibia_r.tibia_upper_r.torque.Y	femur_lat_tibia_r.tibia_upper_r.torque.Z	femur_lat_tibia_r.femur_lat_r.force.X	femur_lat_tibia_r.femur_lat_r.force.Y	femur_lat_tibia_r.femur_lat_r.force.Z	femur_lat_tibia_r.femur_lat_r.torque.X	femur_lat_tibia_r.femur_lat_r.torque.Y	femur_lat_tibia_r.femur_lat_r.torque.Z	femur_lat_meniscii_force_r	femur_med_meniscii_force_r	femur_lat_tibia_force_r	femur_med_tibia_force_r
      0.00000000	      0.00000000	      0.00000000	      1.66574369	     17.58855542	     41.35427838	      0.00000000	      0.00000000	      0.00000000	      4.34794595	     47.41152007	      1.86146449	      0.00000000	      2.98101398	      0.00000000	      0.00000000	      0.00000001	      0.00000000	      0.03250699	      0.02691945	      0.02939526	      0.02968776	      0.05649158	      0.06132051	      0.06358360	      0.05697715	      0.05538222	      0.05352596	      0.01525851	      0.01651186	      0.06550154	      0.04489616	      0.04842665	      0.07425566	     -0.05467185	     -0.00669289	     -0.05889721	      0.02553805	      0.08267947	      0.01786360	     -0.01662651	      0.02260599	      0.00000079	     -0.32847694	      0.00000060	     -0.00000086	      0.13243531	      0.28299364	      0.00246511	     -0.00837665	      0.00349976	      0.05534422	     -0.13243531	     -0.28299364	     -0.00246511	      0.00891056	     -0.00419209	     -0.00454827	      0.08239412	      3.64420958	      0.29868801	     -0.04628927	     -0.00646305	      0.09076941	     -0.08239412	     -3.64420958	     -0.29868801	     -0.04962961	      0.00624440	     -0.06164219	      0.00000000	      0.00000000	      0.00000000	      0.00000000	      0.00000000	      0.00000000	      0.00000000	      0.00000000	      0.00000000	      0.00000000	      0.00000000	      0.00000000	      0.00000000	      0.00000000	      0.00000000	      0.00000000	      0.00000000	      0.00000000	      0.00000000	      0.00000000	      0.00000000	      0.00000000	      0.00000000	      0.00000000	      0.31245893	      3.65735789	      0.00000000	      0.00000000
      0.00100000	      0.00000910	      0.00004730	      1.66574369	     -9.40236855	     12.44155141	      0.00000000	      0.00000000	      0.00000000	    -52.58718622	     -9.31243503	    -74.51429067	      0.00000000	    -73.75491766	      0.00000000	      0.00000000	      0.00000001	      0.00000000	      0.03246919	      0.02688144	      0.02935313	      0.02964420	      0.05644772	      0.06127594	      0.06353949	      0.05692982	      0.05533472	      0.05347842	      0.01525851	      0.01651186	      0.06550154	      0.04489616	      0.04720758	      0.07273886	     -0.05602664	     -0.00815039	     -0.05962791	      0.02479265	      0.08192846	      0.01701809	     -0.01746987	      0.02169770	      0.00000079	     -0.32847694	      0.00000060	     -0.00000086	      0.42295912	      1.39167803	      0.04174985	     -0.05403832	      0.01135097	      0.17927127	     -0.42295912	     -1.39167803	     -0.04174985	      0.04524979	     -0.01353606	     -0.01739944	      0.96457100	      7.72278043	      0.72158067	     -0.13673767	     -0.03084351	      0.50934954	     -0.96457100	     -7.72278043	     -0.72158067	     -0.10065870	      0.02630164	     -0.14340084	      0.00000000	      0.00000000	      0.00000000	      0.00000000	      0.00000000	      0.00000000	      0.00000000	      0.00000000	      0.00000000	      0.00000000	      0.00000000	      0.00000000	      0.00000000	      0.00000000	      0.00000000	      0.00000000	      0.00000000	      0.00000000	      0.00000000	      0.00000000	      0.00000000	      0.00000000	      0.00000000	      0.00000000	      1.45513064	      7.81616360	      0.00000000	      0.00000000
      0.00342139	      0.00009318	      0.00031604	      1.66574369	    -23.13384671	     -7.59427537	      0.00000000	      0.00000000	      0.00000000	    -71.09690650	    -29.31142225	   -106.05179279	      0.00000000	   -104.93476969	      0.00000000	      0.00000000	      0.00000001	      0.00000000	      0.03225315	      0.02665925	      0.02910976	      0.02939347	      0.05620770	      0.06103024	      0.06329769	      0.05665925	      0.05506413	      0.05320770	      0.01525851	      0.01651186	      0.06550154	      0.04489616	      0.04023979	      0.06387216	     -0.06385345	     -0.01653960	     -0.06362633	      0.02068359	      0.07781102	      0.01218441	     -0.02227460	      0.01652576	      0.00000079	     -0.32847694	      0.00000060	     -0.00000086	      6.71633644	     22.44300208	      3.24955510	     -1.95507916	      0.17216747	      2.88572856	     -6.71633644	    -22.44300208	     -3.24955510	      0.82050488	     -0.20473828	     -0.31578617	     11.30716039	     46.55410656	      8.82235997	     -2.72886315	     -0.33350167	      5.25615968	    -11.30716039	    -46.55410656	     -8.82235997	     -0.42558175	      0.28079557	     -0.93515031	      0.00000000	      0.00000000	      0.00000000	      0.00000000	      0.00000000	      0.00000000	      0.00000000	      0.00000000	      0.00000000	      0.00000000	      0.00000000	      0.00000000	      0.00000000	      0.00000000	      0.00000000	      0.00000000	      0.00000000	      0.00000000	      0.00000000	      0.00000000	      0.00000000	      0.00000000	      0.00000000	      0.00000000	     23.65073204	     48.71314760	      0.00000000	      0.00000000
      0.00584278	      0.00023638	      0.00054708	      1.66574369	     -9.00789192	      2.98030022	      0.00000000	      0.00000000	      0.00000000	    -40.42776508	     -0.31126725	    -73.61594846	      0.00000000	    -71.75059488	      0.00000000	      0.00000000	      0.00000001	      0.00000000	      0.03208203	      0.02647531	      0.02887771	      0.02915837	      0.05601506	      0.06083058	      0.06310429	      0.05641345	      0.05482046	      0.05296432	      0.01525851	      0.01651186	      0.06550154	      0.04489616	      0.03472046	      0.05653161	     -0.07131597	     -0.02440554	     -0.06683557	      0.01734428	      0.07451799	      0.00779327	     -0.02660119	      0.01187599	      0.00000079	     -0.32847694	      0.00000060	     -0.00000086	     22.61051472	     58.34323035	     10.94420709	     -6.09588270	      0.56074358	      9.68841984	    -22.61051472	    -58.34323035	    -10.94420709	      2.18094057	     -0.66877320	     -1.02432449	     29.48027915	     89.60705799	     20.49626557	     -6.72526263	     -0.84036078	     13.34335743	    -29.48027915	    -89.60705799	    -20.49626557	     -0.70549722	      0.70274786	     -2.05388803	     -5.31406367	    -38.14981773	      8.56922037	     -0.67371354	     -0.06682065	     -0.71816142	      5.31406367	     38.14981773	     -8.56922037	      4.16072616	      0.03563477	      2.74173778	      0.00000000	      0.00000000	      0.00000000	      0.00000000	      0.00000000	      0.00000000	      0.00000000	      0.00000000	      0.00000000	      0.00000000	      0.00000000	      0.00000000	     63.52120569	     96.53294050	      0.00000000	     39.45984545
      0.00736882	      0.00033714	      0.00062663	      1.66574369	      3.62412391	     14.88572750	      0.00000000	      0.00000000	      0.00000000	    -13.38372655	     26.02740214	    -41.54376193	      0.00000000	    -39.37525848	      0.00000000	      0.00000000	      0.00000001	      0.00000000	      0.03203775	      0.02642195	      0.02877763	      0.02906010	      0.05595760	      0.06076951	      0.06304752	      0.05631620	      0.05472551	      0.05286976	      0.01525851	      0.01651186	      0.06550154	      0.04489616	      0.03329254	      0.05440232	     -0.07453447	     -0.02769341	     -0.06779285	      0.01632301	      0.07355124	      0.00605596	     -0.02828715	      0.01006935	      0.00000079	     -0.32847694	      0.00000060	     -0.00000086	     30.52295044	     69.22539567	     13.78303058	     -7.55426940	      0.75519816	     13.04356845	    -30.52295044	    -69.22539567	    -13.78303058	      2.59841626	     -0.90044502	     -1.33917368	     37.63538670	    100.04310790	     24.33828393	     -8.10957514	     -1.05558708	     16.85503592	    -37.63538670	   -100.04310790	    -24.33828393	     -0.75154497	      0.87970169	     -2.42970488	    -19.60562960	   -145.34652698	     33.48954522	     -2.64544348	     -0.26650995	     -2.72469050	     19.60562960	    145.34652698	    -33.48954522	     16.24089090	      0.15472408	     10.19865338	      0.00000000	      0.00000000	      0.00000000	      0.00000000	      0.00000000	      0.00000000	      0.00000000	      0.00000000	      0.00000000	      0.00000000	      0.00000000	      0.00000000	     76.90109129	    109.62389263	      0.00000000	    150.43783852
      0.00889486	      0.00043486	      0.00065119	      1.66574369	     12.95833399	     24.22756192	      0.00000000	      0.00000000	      0.00000000	      7.47219351	     46.63972421	    -16.55612787	      0.00000000	    -14.31529306	      0.00000000	      0.00000000	      0.00000001	      0.00000000	      0.03204001	      0.02641475	      0.02872275	      0.02900939	      0.05595332	      0.06076233	      0.06304430	      0.05627012	      0.05468210	      0.05282681	      0.01525851	      0.01651186	      0.06550154	      0.04489616	      0.03336523	      0.05411480	     -0.07629929	     -0.02939028	     -0.06786419	      0.01620301	      0.07349646	      0.00523291	     -0.02905788	      0.00924881	      0.00000079	     -0.32847694	      0.00000060	     -0.00000086	     34.05058536	     71.02531257	     15.17955428	     -8.17398962	      0.84153263	     14.51163170	    -34.05058536	    -71.02531257	    -15.17955428	      2.68568120	     -1.00255871	     -1.44688434	     41.57616402	     99.72453735	     25.26833581	     -8.49754423	     -1.14008202	     18.46343422	    -41.57616402	    -99.72453735	    -25.26833581	     -0.72891018	      0.94586442	     -2.51585286	    -23.06607302	   -169.88994143	     39.16241978	     -3.13463686	     -0.29799494	     -3.15818355	     23.06607302	    169.88994143	    -39.16241978	     19.02017913	      0.17131346	     11.96497259	      0.00000000	      0.00000000	      0.00000000	      0.00000000	      0.00000000	      0.00000000	      0.00000000	      0.00000000	      0.00000000	      0.00000000	      0.00000000	      0.00000000	     80.21506253	    110.95967537	      0.00000000	    175.86452469
      0.01042090	      0.00052552	      0.00065017	      1.66574369	     14.74942948	     26.36680958	      0.00000000	      0.00000000	      0.00000000	     10.93622946	     50.14847653	    -12.94689676	      0.00000000	    -10.90696963	      0.00000000	      0.00000000	      0.00000001	      0.00000000	      0.03206274	      0.02642842	      0.02869073	      0.02898247	      0.05597368	      0.06078029	      0.06306574	      0.05624760	      0.05466219	      0.05280733	      0.01525851	      0.01651186	      0.06550154	      0.04489616	      0.03409855	      0.05466039	     -0.07732902	     -0.03029105	     -0.06752487	      0.01650326	      0.07386151	      0.00483050	     -0.02941150	      0.00887662	      0.00000079	     -0.32847694	      0.00000060	     -0.00000086	     35.83324419	     72.74099061	     15.21278311	     -8.21677836	      0.88456493	     15.23623762	    -35.83324419	    -72.74099061	    -15.21278311	      2.71975180	     -1.05332511	     -1.48122144	     43.36978669	    100.02539882	     24.13360774	     -7.99568768	     -1.16173133	     19.15617706	    -43.36978669	   -100.02539882	    -24.13360774	     -0.79903457	      0.95908133	     -2.51153032	    -18.16520315	   -129.45830400	     31.42323539	     -2.46490105	     -0.23183607	     -2.38881467	     18.16520315	    129.45830400	    -31.42323539	     15.17007757	      0.13531155	      9.33578273	      0.00000000	      0.00000000	      0.00000000	      0.00000000	      0.00000000	      0.00000000	      0.00000000	      0.00000000	      0.00000000	      0.00000000	      0.00000000	      0.00000000	     82.50273859	    111.66221308	      0.00000000	    134.45016476
